# xmcd CD database file
#
# Track frame offsets:
#	150
#	21863
#	46979
#	69535
#	92770
#	114862
#	133133
#	161491
#	181225
#	200667
#
# Disc length: 2913 seconds
#
# Revision: 1
# Processed by: cddbd v1.5.1PL0 Copyright (c) Steve Scherf et al.
# Submitted via: CDex 1.51
#
DISCID=840b5f0a
DTITLE=Terry Trotter - Sketches on Stars Wars
DYEAR=1900
DGENRE=Jazz
TTITLE0=Star Wars (Main Title)
TTITLE1=Yoda's Theme
TTITLE2=Princess Leia's Theme
TTITLE3=Ewok Celebration
TTITLE4=The Impreial March
TTITLE5=Han Solo And The Princess
TTITLE6=Jabba The Bules
TTITLE7=Luke And Leia
TTITLE8=Cantina Band
TTITLE9=May The Force Be With You
EXTD=
EXTT0=
EXTT1=
EXTT2=
EXTT3=
EXTT4=
EXTT5=
EXTT6=
EXTT7=
EXTT8=
EXTT9=
PLAYORDER=
